<?xml version="1.0" encoding="UTF-8"?>
<svg id="Layer_1" xmlns="http://www.w3.org/2000/svg" version="1.1" viewBox="0 0 512 512">
  <!-- Generator: Adobe Illustrator 29.7.1, SVG Export Plug-In . SVG Version: 2.1.1 Build 8)  -->
  <defs>
    <style>
      .st0 {
        stroke-width: 30px;
      }

      .st0, .st1, .st2, .st3 {
        fill: none;
        stroke-miterlimit: 10;
      }

      .st0, .st3 {
        isolation: isolate;
        stroke: #a9bfb2;
      }

      .st4 {
        display: none;
        fill: #687a7b;
      }

      .st1 {
        stroke-width: 23px;
      }

      .st1, .st2 {
        stroke: #0d8a9e;
      }

      .st2, .st3 {
        stroke-width: 40px;
      }
    </style>
  </defs>
  <rect class="st4" y="0" width="512" height="512"/>
  <path class="st1" d="M442.05,381.15c.27,2.13.41,4.31.41,6.51,0,28.44-23.06,51.5-51.5,51.5-14.98,0-28.46-6.39-37.87-16.59-5.56,22.44-25.83,39.08-49.99,39.08-18.85,0-35.34-10.14-44.32-25.26-8.6,6.44-19.28,10.26-30.84,10.26-21.43,0-39.81-13.1-47.57-31.73-7.75,18.63-26.13,31.73-47.56,31.73-28.44,0-51.5-23.06-51.5-51.5,0-12.95,4.78-24.77,12.66-33.82-26.75-1.86-47.87-24.14-47.87-51.37,0-22.01,13.82-40.8,33.25-48.17-20.77-6.64-35.81-26.1-35.81-49.07,0-26.66,20.26-48.59,46.22-51.23-5.34-8.12-8.45-17.83-8.45-28.27,0-28.45,23.06-51.5,51.5-51.5,11.83,0,22.73,3.99,31.43,10.71,8.96-15.16,25.48-25.32,44.36-25.32,26.62,0,48.53,20.2,51.22,46.12,9.18-14.18,25.13-23.57,43.28-23.57,8.01,0,15.59,1.83,22.35,5.09,6.47-21.06,26.07-36.37,49.25-36.37,28.44,0,51.5,23.06,51.5,51.5,0,6.88-1.35,13.44-3.79,19.44,12.19,9.42,20.05,24.18,20.05,40.79,0,12.74-4.62,24.4-12.29,33.39,16.04,8.72,26.93,25.73,26.93,45.27,0,16.29-7.57,30.82-19.38,40.25,18.11,7.98,30.75,26.08,30.75,47.14,0,19.33-10.66,36.18-26.42,44.99Z"/>
  <line class="st3" x1="256" y1="374.05" x2="256" y2="188.66"/>
  <path class="st2" d="M209.24,219.21"/>
  <polyline class="st0" points="181.68 260.01 256.13 185.56 330.32 259.76"/>
</svg>